<svg width="263" height="100" viewBox="0 0 263 100" fill="none" xmlns="http://www.w3.org/2000/svg">
<rect width="263" height="100" fill="#5B6460"/>
<rect width="263" height="100" fill="#5B6460"/>
<path d="M93.602 53.508C93.602 52.764 93.41 52.122 93.026 51.582C92.642 51.042 92.102 50.652 91.406 50.412C92.03 50.208 92.516 49.848 92.864 49.332C93.224 48.804 93.404 48.204 93.404 47.532C93.404 47.004 93.308 46.536 93.116 46.128C92.936 45.708 92.678 45.354 92.342 45.066C92.018 44.778 91.628 44.562 91.172 44.418C90.716 44.262 90.224 44.184 89.696 44.184H84.98V57H89.84C90.404 57 90.914 56.928 91.37 56.784C91.838 56.628 92.234 56.406 92.558 56.118C92.894 55.818 93.152 55.452 93.332 55.02C93.512 54.588 93.602 54.084 93.602 53.508ZM92.432 47.532C92.432 47.976 92.354 48.354 92.198 48.666C92.054 48.978 91.85 49.236 91.586 49.44C91.334 49.632 91.034 49.776 90.686 49.872C90.338 49.968 89.972 50.016 89.588 50.016H85.952V45.048H89.588C89.972 45.048 90.338 45.096 90.686 45.192C91.034 45.288 91.334 45.438 91.586 45.642C91.85 45.834 92.054 46.086 92.198 46.398C92.354 46.71 92.432 47.088 92.432 47.532ZM92.63 53.508C92.63 54.336 92.366 54.984 91.838 55.452C91.31 55.908 90.608 56.136 89.732 56.136H85.952V50.88H89.732C90.608 50.88 91.31 51.114 91.838 51.582C92.366 52.038 92.63 52.68 92.63 53.508ZM106.336 50.592C106.336 49.872 106.33 49.254 106.318 48.738C106.306 48.21 106.258 47.748 106.174 47.352C106.102 46.956 105.982 46.602 105.814 46.29C105.658 45.978 105.436 45.678 105.148 45.39C104.728 44.97 104.242 44.646 103.69 44.418C103.138 44.19 102.556 44.076 101.944 44.076C101.332 44.076 100.75 44.19 100.198 44.418C99.6462 44.646 99.1602 44.97 98.7402 45.39C98.4522 45.678 98.2242 45.978 98.0562 46.29C97.9002 46.602 97.7802 46.956 97.6962 47.352C97.6242 47.748 97.5822 48.21 97.5702 48.738C97.5582 49.254 97.5522 49.872 97.5522 50.592C97.5522 51.312 97.5582 51.936 97.5702 52.464C97.5822 52.992 97.6242 53.454 97.6962 53.85C97.7802 54.246 97.9002 54.6 98.0562 54.912C98.2242 55.212 98.4522 55.506 98.7402 55.794C99.1602 56.214 99.6462 56.538 100.198 56.766C100.75 56.994 101.332 57.108 101.944 57.108C102.556 57.108 103.138 56.994 103.69 56.766C104.242 56.538 104.728 56.214 105.148 55.794C105.436 55.506 105.658 55.212 105.814 54.912C105.982 54.6 106.102 54.246 106.174 53.85C106.258 53.454 106.306 52.992 106.318 52.464C106.33 51.936 106.336 51.312 106.336 50.592ZM105.364 50.592C105.364 51.276 105.352 51.864 105.328 52.356C105.316 52.836 105.274 53.256 105.202 53.616C105.142 53.964 105.046 54.27 104.914 54.534C104.782 54.786 104.602 55.026 104.374 55.254C104.05 55.578 103.678 55.824 103.258 55.992C102.838 56.16 102.4 56.244 101.944 56.244C101.488 56.244 101.05 56.16 100.63 55.992C100.21 55.824 99.8382 55.578 99.5142 55.254C99.2862 55.026 99.1062 54.786 98.9742 54.534C98.8422 54.27 98.7402 53.964 98.6682 53.616C98.6082 53.256 98.5662 52.836 98.5422 52.356C98.5302 51.864 98.5242 51.276 98.5242 50.592C98.5242 49.908 98.5302 49.326 98.5422 48.846C98.5662 48.354 98.6082 47.934 98.6682 47.586C98.7402 47.226 98.8422 46.92 98.9742 46.668C99.1062 46.404 99.2862 46.158 99.5142 45.93C99.8382 45.606 100.21 45.36 100.63 45.192C101.05 45.024 101.488 44.94 101.944 44.94C102.4 44.94 102.838 45.024 103.258 45.192C103.678 45.36 104.05 45.606 104.374 45.93C104.602 46.158 104.782 46.404 104.914 46.668C105.046 46.92 105.142 47.226 105.202 47.586C105.274 47.934 105.316 48.354 105.328 48.846C105.352 49.326 105.364 49.908 105.364 50.592ZM119.078 50.592C119.078 49.872 119.072 49.254 119.06 48.738C119.048 48.21 119 47.748 118.916 47.352C118.844 46.956 118.724 46.602 118.556 46.29C118.4 45.978 118.178 45.678 117.89 45.39C117.47 44.97 116.984 44.646 116.432 44.418C115.88 44.19 115.298 44.076 114.686 44.076C114.074 44.076 113.492 44.19 112.94 44.418C112.388 44.646 111.902 44.97 111.482 45.39C111.194 45.678 110.966 45.978 110.798 46.29C110.642 46.602 110.522 46.956 110.438 47.352C110.366 47.748 110.324 48.21 110.312 48.738C110.3 49.254 110.294 49.872 110.294 50.592C110.294 51.312 110.3 51.936 110.312 52.464C110.324 52.992 110.366 53.454 110.438 53.85C110.522 54.246 110.642 54.6 110.798 54.912C110.966 55.212 111.194 55.506 111.482 55.794C111.902 56.214 112.388 56.538 112.94 56.766C113.492 56.994 114.074 57.108 114.686 57.108C115.298 57.108 115.88 56.994 116.432 56.766C116.984 56.538 117.47 56.214 117.89 55.794C118.178 55.506 118.4 55.212 118.556 54.912C118.724 54.6 118.844 54.246 118.916 53.85C119 53.454 119.048 52.992 119.06 52.464C119.072 51.936 119.078 51.312 119.078 50.592ZM118.106 50.592C118.106 51.276 118.094 51.864 118.07 52.356C118.058 52.836 118.016 53.256 117.944 53.616C117.884 53.964 117.788 54.27 117.656 54.534C117.524 54.786 117.344 55.026 117.116 55.254C116.792 55.578 116.42 55.824 116 55.992C115.58 56.16 115.142 56.244 114.686 56.244C114.23 56.244 113.792 56.16 113.372 55.992C112.952 55.824 112.58 55.578 112.256 55.254C112.028 55.026 111.848 54.786 111.716 54.534C111.584 54.27 111.482 53.964 111.41 53.616C111.35 53.256 111.308 52.836 111.284 52.356C111.272 51.864 111.266 51.276 111.266 50.592C111.266 49.908 111.272 49.326 111.284 48.846C111.308 48.354 111.35 47.934 111.41 47.586C111.482 47.226 111.584 46.92 111.716 46.668C111.848 46.404 112.028 46.158 112.256 45.93C112.58 45.606 112.952 45.36 113.372 45.192C113.792 45.024 114.23 44.94 114.686 44.94C115.142 44.94 115.58 45.024 116 45.192C116.42 45.36 116.792 45.606 117.116 45.93C117.344 46.158 117.524 46.404 117.656 46.668C117.788 46.92 117.884 47.226 117.944 47.586C118.016 47.934 118.058 48.354 118.07 48.846C118.094 49.326 118.106 49.908 118.106 50.592ZM132.847 57L128.221 49.08L132.181 44.184H131.011L124.513 52.194V44.184H123.541V57H124.513V53.526L127.573 49.818L131.695 57H132.847ZM151.072 57V44.184H150.1V55.29L142.702 44.184H141.73V57H142.702V45.858L150.1 57H151.072ZM164.317 50.592C164.317 49.872 164.311 49.254 164.299 48.738C164.287 48.21 164.239 47.748 164.155 47.352C164.083 46.956 163.963 46.602 163.795 46.29C163.639 45.978 163.417 45.678 163.129 45.39C162.709 44.97 162.223 44.646 161.671 44.418C161.119 44.19 160.537 44.076 159.925 44.076C159.313 44.076 158.731 44.19 158.179 44.418C157.627 44.646 157.141 44.97 156.721 45.39C156.433 45.678 156.205 45.978 156.037 46.29C155.881 46.602 155.761 46.956 155.677 47.352C155.605 47.748 155.563 48.21 155.551 48.738C155.539 49.254 155.533 49.872 155.533 50.592C155.533 51.312 155.539 51.936 155.551 52.464C155.563 52.992 155.605 53.454 155.677 53.85C155.761 54.246 155.881 54.6 156.037 54.912C156.205 55.212 156.433 55.506 156.721 55.794C157.141 56.214 157.627 56.538 158.179 56.766C158.731 56.994 159.313 57.108 159.925 57.108C160.537 57.108 161.119 56.994 161.671 56.766C162.223 56.538 162.709 56.214 163.129 55.794C163.417 55.506 163.639 55.212 163.795 54.912C163.963 54.6 164.083 54.246 164.155 53.85C164.239 53.454 164.287 52.992 164.299 52.464C164.311 51.936 164.317 51.312 164.317 50.592ZM163.345 50.592C163.345 51.276 163.333 51.864 163.309 52.356C163.297 52.836 163.255 53.256 163.183 53.616C163.123 53.964 163.027 54.27 162.895 54.534C162.763 54.786 162.583 55.026 162.355 55.254C162.031 55.578 161.659 55.824 161.239 55.992C160.819 56.16 160.381 56.244 159.925 56.244C159.469 56.244 159.031 56.16 158.611 55.992C158.191 55.824 157.819 55.578 157.495 55.254C157.267 55.026 157.087 54.786 156.955 54.534C156.823 54.27 156.721 53.964 156.649 53.616C156.589 53.256 156.547 52.836 156.523 52.356C156.511 51.864 156.505 51.276 156.505 50.592C156.505 49.908 156.511 49.326 156.523 48.846C156.547 48.354 156.589 47.934 156.649 47.586C156.721 47.226 156.823 46.92 156.955 46.668C157.087 46.404 157.267 46.158 157.495 45.93C157.819 45.606 158.191 45.36 158.611 45.192C159.031 45.024 159.469 44.94 159.925 44.94C160.381 44.94 160.819 45.024 161.239 45.192C161.659 45.36 162.031 45.606 162.355 45.93C162.583 46.158 162.763 46.404 162.895 46.668C163.027 46.92 163.123 47.226 163.183 47.586C163.255 47.934 163.297 48.354 163.309 48.846C163.333 49.326 163.345 49.908 163.345 50.592ZM181.419 44.184H180.393L177.693 55.326L174.705 44.184H173.697L170.709 55.326L168.009 44.184H166.983L170.187 57H171.177L174.201 45.84L177.225 57H178.215L181.419 44.184Z" fill="white"/>
</svg>
