<svg width="120" height="100" viewBox="0 0 120 100" fill="none" xmlns="http://www.w3.org/2000/svg">
<rect width="120" height="100" fill="#E9ECE0"/>
<path d="M46.652 71.108C46.652 70.652 46.6 70.204 46.496 69.764C46.4 69.316 46.204 68.944 45.908 68.648C45.756 68.496 45.556 68.376 45.308 68.288C45.068 68.192 44.796 68.144 44.492 68.144C44.164 68.144 43.86 68.196 43.58 68.3C43.3 68.404 43.032 68.624 42.776 68.96V68.216H42.164V76.76H42.776V73.256C43.032 73.592 43.3 73.812 43.58 73.916C43.86 74.02 44.164 74.072 44.492 74.072C44.796 74.072 45.068 74.028 45.308 73.94C45.556 73.844 45.756 73.72 45.908 73.568C46.204 73.272 46.4 72.904 46.496 72.464C46.6 72.016 46.652 71.564 46.652 71.108ZM46.04 71.108C46.04 71.412 46.02 71.708 45.98 71.996C45.948 72.284 45.872 72.544 45.752 72.776C45.64 73 45.476 73.184 45.26 73.328C45.044 73.464 44.76 73.532 44.408 73.532C44.056 73.532 43.772 73.464 43.556 73.328C43.34 73.184 43.172 73 43.052 72.776C42.94 72.544 42.864 72.284 42.824 71.996C42.792 71.708 42.776 71.412 42.776 71.108C42.776 70.812 42.792 70.52 42.824 70.232C42.864 69.936 42.94 69.676 43.052 69.452C43.172 69.22 43.34 69.036 43.556 68.9C43.772 68.756 44.056 68.684 44.408 68.684C44.76 68.684 45.044 68.756 45.26 68.9C45.476 69.036 45.64 69.22 45.752 69.452C45.872 69.676 45.948 69.936 45.98 70.232C46.02 70.52 46.04 70.812 46.04 71.108ZM52.9405 71.24V70.964C52.9405 70.076 52.7365 69.384 52.3285 68.888C51.9205 68.392 51.3525 68.144 50.6245 68.144C49.8965 68.144 49.3285 68.404 48.9205 68.924C48.5125 69.444 48.3085 70.172 48.3085 71.108C48.3085 72.076 48.5165 72.812 48.9325 73.316C49.3565 73.82 49.9685 74.072 50.7685 74.072C51.0085 74.072 51.2245 74.052 51.4165 74.012C51.6085 73.98 51.7845 73.928 51.9445 73.856C52.1125 73.776 52.2685 73.68 52.4125 73.568C52.5645 73.456 52.7125 73.328 52.8565 73.184L52.4005 72.824C52.1525 73.072 51.9085 73.252 51.6685 73.364C51.4365 73.468 51.1485 73.52 50.8045 73.52C50.1885 73.52 49.7205 73.324 49.4005 72.932C49.0805 72.54 48.9205 71.976 48.9205 71.24H52.9405ZM52.3285 70.748H48.9205C48.9285 70.612 48.9365 70.496 48.9445 70.4C48.9525 70.296 48.9645 70.208 48.9805 70.136C48.9965 70.056 49.0125 69.98 49.0285 69.908C49.0525 69.828 49.0845 69.744 49.1245 69.656C49.2525 69.352 49.4485 69.116 49.7125 68.948C49.9845 68.772 50.2885 68.684 50.6245 68.684C50.9605 68.684 51.2605 68.772 51.5245 68.948C51.7965 69.116 51.9965 69.352 52.1245 69.656C52.1565 69.744 52.1845 69.828 52.2085 69.908C52.2325 69.98 52.2525 70.056 52.2685 70.136C52.2845 70.208 52.2965 70.296 52.3045 70.4C52.3125 70.496 52.3205 70.612 52.3285 70.748ZM58.6217 68.696C58.4137 68.488 58.1977 68.344 57.9737 68.264C57.7577 68.184 57.5097 68.144 57.2297 68.144C56.8857 68.144 56.5577 68.216 56.2457 68.36C55.9417 68.504 55.7057 68.712 55.5377 68.984V68.216H54.9257V74H55.5377V70.436C55.5377 70.204 55.5697 69.984 55.6337 69.776C55.7057 69.56 55.8057 69.372 55.9337 69.212C56.0697 69.052 56.2337 68.924 56.4257 68.828C56.6177 68.732 56.8377 68.684 57.0857 68.684C57.3257 68.684 57.5217 68.716 57.6737 68.78C57.8337 68.844 58.0017 68.964 58.1777 69.14L58.6217 68.696ZM67.3465 74V70.304C67.3465 69.616 67.1465 69.08 66.7465 68.696C66.3625 68.328 65.8505 68.144 65.2105 68.144C64.5065 68.144 63.9385 68.396 63.5065 68.9V68.216H62.8945V74H63.5065V70.412C63.5065 69.86 63.6465 69.436 63.9265 69.14C64.2145 68.836 64.6185 68.684 65.1385 68.684C65.6585 68.684 66.0545 68.832 66.3265 69.128C66.5985 69.424 66.7345 69.852 66.7345 70.412V74H67.3465ZM70.2816 66.212V65.456H69.5256V66.212H70.2816ZM70.2096 74V68.216H69.5976V74H70.2096ZM76.691 74.324V68.216H76.079V68.96C75.823 68.624 75.555 68.404 75.275 68.3C74.995 68.196 74.691 68.144 74.363 68.144C74.059 68.144 73.783 68.192 73.535 68.288C73.295 68.376 73.099 68.496 72.947 68.648C72.651 68.944 72.451 69.316 72.347 69.764C72.251 70.204 72.203 70.652 72.203 71.108C72.203 71.564 72.251 72.016 72.347 72.464C72.451 72.904 72.651 73.272 72.947 73.568C73.099 73.72 73.295 73.844 73.535 73.94C73.783 74.028 74.059 74.072 74.363 74.072C74.691 74.072 74.995 74.02 75.275 73.916C75.555 73.812 75.823 73.592 76.079 73.256V74.288C76.079 74.576 76.043 74.84 75.971 75.08C75.907 75.328 75.803 75.54 75.659 75.716C75.515 75.9 75.331 76.04 75.107 76.136C74.891 76.24 74.631 76.292 74.327 76.292C74.143 76.292 73.983 76.276 73.847 76.244C73.711 76.22 73.587 76.18 73.475 76.124C73.363 76.076 73.255 76.012 73.151 75.932C73.047 75.852 72.939 75.76 72.827 75.656L72.419 76.064C72.571 76.2 72.715 76.316 72.851 76.412C72.987 76.508 73.127 76.588 73.271 76.652C73.423 76.716 73.583 76.76 73.751 76.784C73.919 76.816 74.111 76.832 74.327 76.832C74.703 76.832 75.035 76.768 75.323 76.64C75.619 76.52 75.867 76.348 76.067 76.124C76.275 75.9 76.431 75.632 76.535 75.32C76.639 75.016 76.691 74.684 76.691 74.324ZM76.079 71.108C76.079 71.412 76.059 71.708 76.019 71.996C75.987 72.284 75.911 72.544 75.791 72.776C75.679 73 75.515 73.184 75.299 73.328C75.083 73.464 74.799 73.532 74.447 73.532C74.095 73.532 73.811 73.464 73.595 73.328C73.379 73.184 73.211 73 73.091 72.776C72.979 72.544 72.903 72.284 72.863 71.996C72.831 71.708 72.815 71.412 72.815 71.108C72.815 70.812 72.831 70.52 72.863 70.232C72.903 69.936 72.979 69.676 73.091 69.452C73.211 69.22 73.379 69.036 73.595 68.9C73.811 68.756 74.095 68.684 74.447 68.684C74.799 68.684 75.083 68.756 75.299 68.9C75.515 69.036 75.679 69.22 75.791 69.452C75.911 69.676 75.987 69.936 76.019 70.232C76.059 70.52 76.079 70.812 76.079 71.108ZM83.4715 74V70.304C83.4715 69.632 83.2795 69.104 82.8955 68.72C82.5195 68.336 81.9995 68.144 81.3355 68.144C80.6315 68.144 80.0635 68.396 79.6315 68.9V65.456H79.0195V74H79.6315V70.412C79.6315 69.86 79.7715 69.436 80.0515 69.14C80.3395 68.836 80.7435 68.684 81.2635 68.684C81.7835 68.684 82.1795 68.832 82.4515 69.128C82.7235 69.424 82.8595 69.852 82.8595 70.412V74H83.4715ZM87.7866 74V73.46H87.3666C87.0626 73.46 86.8386 73.376 86.6946 73.208C86.5506 73.04 86.4786 72.804 86.4786 72.5V68.672H87.7866V68.216H86.4786V66.368H85.8666V68.216H85.0746V68.672H85.8666V72.488C85.8666 72.928 85.9826 73.292 86.2146 73.58C86.4546 73.86 86.8026 74 87.2586 74H87.7866Z" fill="#333333"/>
<path d="M32.264 30.672V30.216H30.956V28.956C30.956 28.652 31.028 28.416 31.172 28.248C31.316 28.08 31.54 27.996 31.844 27.996H32.264V27.456H31.736C31.28 27.456 30.932 27.6 30.692 27.888C30.46 28.168 30.344 28.528 30.344 28.968V30.216H29.552V30.672H30.344V36H30.956V30.672H32.264ZM37.5045 30.696C37.2965 30.488 37.0805 30.344 36.8565 30.264C36.6405 30.184 36.3925 30.144 36.1125 30.144C35.7685 30.144 35.4405 30.216 35.1285 30.36C34.8245 30.504 34.5885 30.712 34.4205 30.984V30.216H33.8085V36H34.4205V32.436C34.4205 32.204 34.4525 31.984 34.5165 31.776C34.5885 31.56 34.6885 31.372 34.8165 31.212C34.9525 31.052 35.1165 30.924 35.3085 30.828C35.5005 30.732 35.7205 30.684 35.9685 30.684C36.2085 30.684 36.4045 30.716 36.5565 30.78C36.7165 30.844 36.8845 30.964 37.0605 31.14L37.5045 30.696ZM42.6168 33.108C42.6168 32.692 42.5728 32.276 42.4848 31.86C42.3968 31.444 42.2008 31.084 41.8968 30.78C41.6888 30.572 41.4488 30.416 41.1768 30.312C40.9128 30.2 40.6168 30.144 40.2888 30.144C39.6408 30.144 39.1048 30.356 38.6808 30.78C38.3768 31.084 38.1808 31.444 38.0928 31.86C38.0048 32.276 37.9608 32.692 37.9608 33.108C37.9608 33.524 38.0048 33.94 38.0928 34.356C38.1808 34.772 38.3768 35.132 38.6808 35.436C39.1048 35.86 39.6408 36.072 40.2888 36.072C40.6168 36.072 40.9128 36.02 41.1768 35.916C41.4488 35.804 41.6888 35.644 41.8968 35.436C42.2008 35.132 42.3968 34.772 42.4848 34.356C42.5728 33.94 42.6168 33.524 42.6168 33.108ZM42.0048 33.108C42.0048 33.276 42.0008 33.448 41.9928 33.624C41.9848 33.8 41.9608 33.976 41.9208 34.152C41.8888 34.32 41.8368 34.48 41.7648 34.632C41.7008 34.784 41.6088 34.92 41.4888 35.04C41.3288 35.2 41.1448 35.324 40.9368 35.412C40.7368 35.492 40.5208 35.532 40.2888 35.532C39.8168 35.532 39.4168 35.368 39.0888 35.04C38.9688 34.92 38.8728 34.784 38.8008 34.632C38.7368 34.48 38.6848 34.32 38.6448 34.152C38.6128 33.976 38.5928 33.8 38.5848 33.624C38.5768 33.448 38.5728 33.276 38.5728 33.108C38.5728 32.94 38.5768 32.768 38.5848 32.592C38.5928 32.416 38.6128 32.244 38.6448 32.076C38.6848 31.9 38.7368 31.736 38.8008 31.584C38.8728 31.432 38.9688 31.296 39.0888 31.176C39.4168 30.848 39.8168 30.684 40.2888 30.684C40.5208 30.684 40.7368 30.728 40.9368 30.816C41.1448 30.896 41.3288 31.016 41.4888 31.176C41.6088 31.296 41.7008 31.432 41.7648 31.584C41.8368 31.736 41.8888 31.9 41.9208 32.076C41.9608 32.244 41.9848 32.416 41.9928 32.592C42.0008 32.768 42.0048 32.94 42.0048 33.108ZM52.8932 36V32.304C52.8932 31.616 52.6932 31.08 52.2932 30.696C52.1092 30.52 51.8892 30.384 51.6332 30.288C51.3772 30.192 51.0892 30.144 50.7692 30.144C50.3372 30.144 49.9532 30.236 49.6172 30.42C49.2892 30.596 49.0172 30.856 48.8012 31.2C48.6252 30.856 48.3772 30.596 48.0572 30.42C47.7452 30.236 47.3732 30.144 46.9412 30.144C46.2292 30.144 45.6572 30.396 45.2252 30.9V30.216H44.6132V36H45.2252V32.412C45.2252 31.86 45.3652 31.436 45.6452 31.14C45.9332 30.836 46.3372 30.684 46.8572 30.684C47.3772 30.684 47.7732 30.832 48.0452 31.128C48.3172 31.424 48.4532 31.852 48.4532 32.412V36H49.0652V32.304C49.0652 31.808 49.2092 31.416 49.4972 31.128C49.7932 30.832 50.1932 30.684 50.6972 30.684C51.2172 30.684 51.6132 30.832 51.8852 31.128C52.1572 31.424 52.2932 31.852 52.2932 32.412V36H52.8932Z" fill="#333333"/>
<path d="M36.368 43.3192C37.0347 43.3192 37.6613 43.3925 38.248 43.5392C38.8347 43.6858 39.4013 43.9192 39.948 44.2392L39.208 45.6792C38.8347 45.4792 38.3947 45.2925 37.888 45.1192C37.3947 44.9458 36.888 44.8592 36.368 44.8592C34.3413 44.8592 33.0813 46.1325 32.588 48.6792H37.468V49.9792H32.448C32.4347 50.1125 32.428 50.2392 32.428 50.3592C32.428 50.4792 32.428 50.6058 32.428 50.7392C32.428 50.8592 32.428 50.9925 32.428 51.1392C32.428 51.2725 32.4347 51.4125 32.448 51.5592H36.868V52.8592H32.608C32.8347 53.9925 33.268 54.8725 33.908 55.4992C34.5613 56.1125 35.4347 56.4192 36.528 56.4192C37.048 56.4192 37.568 56.3592 38.088 56.2392C38.6213 56.1058 39.0947 55.9525 39.508 55.7792V57.3392C39.0947 57.5125 38.6347 57.6592 38.128 57.7792C37.6347 57.9125 37.068 57.9792 36.428 57.9792C34.8147 57.9792 33.548 57.5192 32.628 56.5992C31.7213 55.6792 31.1213 54.4325 30.828 52.8592H29.228V51.5592H30.668C30.6547 51.3992 30.648 51.2658 30.648 51.1592C30.648 51.0525 30.648 50.9125 30.648 50.7392C30.648 50.5925 30.648 50.4525 30.648 50.3192C30.6613 50.1725 30.668 50.0592 30.668 49.9792H29.228V48.6792H30.808C31.0613 47.0392 31.6547 45.7392 32.588 44.7792C33.5213 43.8058 34.7813 43.3192 36.368 43.3192ZM49.7733 53.7792C49.7733 52.8992 49.5933 52.1858 49.2333 51.6392C48.8733 51.0925 48.3867 50.6858 47.7733 50.4192C48.3333 50.1525 48.7667 49.7725 49.0733 49.2792C49.3933 48.7725 49.5533 48.1392 49.5533 47.3792C49.5533 46.7925 49.4467 46.2592 49.2333 45.7792C49.0333 45.2858 48.7467 44.8658 48.3733 44.5192C48.0133 44.1592 47.58 43.8858 47.0733 43.6992C46.5667 43.4992 46.0133 43.3992 45.4133 43.3992C44.84 43.3992 44.3067 43.4925 43.8133 43.6792C43.32 43.8525 42.8867 44.1058 42.5133 44.4392C42.14 44.7725 41.84 45.1792 41.6133 45.6592C41.3867 46.1392 41.26 46.6792 41.2333 47.2792H43.2733C43.3267 46.6392 43.54 46.1392 43.9133 45.7792C44.2867 45.4192 44.7867 45.2392 45.4133 45.2392C46 45.2392 46.4933 45.4258 46.8933 45.7992C47.3067 46.1725 47.5133 46.7192 47.5133 47.4392C47.5133 48.0925 47.34 48.6192 46.9933 49.0192C46.6467 49.4058 46.1 49.5992 45.3533 49.5992H45.0133V51.3792H45.3533C46.1533 51.3792 46.7467 51.5925 47.1333 52.0192C47.5333 52.4325 47.7333 52.9992 47.7333 53.7192C47.7333 54.4792 47.5133 55.0658 47.0733 55.4792C46.6333 55.8792 46.08 56.0792 45.4133 56.0792C45.12 56.0792 44.8333 56.0392 44.5533 55.9592C44.2867 55.8792 44.0467 55.7525 43.8333 55.5792C43.6333 55.3925 43.46 55.1658 43.3133 54.8992C43.18 54.6325 43.1067 54.3058 43.0933 53.9192H41.0533C41.0667 54.6125 41.1933 55.2125 41.4333 55.7192C41.6867 56.2258 42.0133 56.6458 42.4133 56.9792C42.8133 57.2992 43.2667 57.5392 43.7733 57.6992C44.2933 57.8458 44.84 57.9192 45.4133 57.9192C46.0133 57.9192 46.5733 57.8325 47.0933 57.6592C47.6267 57.4858 48.0867 57.2258 48.4733 56.8792C48.8733 56.5325 49.1867 56.0992 49.4133 55.5792C49.6533 55.0592 49.7733 54.4592 49.7733 53.7792ZM54.8774 57.7792V55.3392H52.4374V57.7792H54.8774ZM65.9838 57.7792V55.9592H60.1838L64.6438 50.4992C65.0838 49.9658 65.4171 49.4792 65.6438 49.0392C65.8705 48.5858 65.9838 48.0458 65.9838 47.4192C65.9838 46.8058 65.8838 46.2525 65.6838 45.7592C65.4838 45.2658 65.2038 44.8458 64.8438 44.4992C64.4838 44.1525 64.0505 43.8858 63.5438 43.6992C63.0371 43.5125 62.4771 43.4192 61.8638 43.4192C61.2638 43.4192 60.7105 43.5192 60.2038 43.7192C59.6971 43.9058 59.2571 44.1725 58.8838 44.5192C58.5238 44.8658 58.2371 45.2925 58.0238 45.7992C57.8238 46.2925 57.7238 46.8392 57.7238 47.4392H59.7638C59.7638 47.0392 59.8238 46.6992 59.9438 46.4192C60.0638 46.1392 60.2171 45.9125 60.4038 45.7392C60.6038 45.5658 60.8305 45.4392 61.0838 45.3592C61.3371 45.2792 61.5971 45.2392 61.8638 45.2392C62.5305 45.2392 63.0438 45.4392 63.4038 45.8392C63.7638 46.2392 63.9438 46.7592 63.9438 47.3992C63.9438 47.7592 63.8838 48.0858 63.7638 48.3792C63.6438 48.6592 63.4505 48.9658 63.1838 49.2992L57.7038 55.9592V57.7792H65.9838ZM76.5478 53.8192V47.4992C76.5478 46.8592 76.4345 46.2925 76.2078 45.7992C75.9945 45.2925 75.7012 44.8658 75.3278 44.5192C74.9545 44.1592 74.5145 43.8858 74.0078 43.6992C73.5145 43.5125 72.9878 43.4192 72.4278 43.4192C71.8678 43.4192 71.3345 43.5125 70.8278 43.6992C70.3345 43.8858 69.9012 44.1592 69.5278 44.5192C69.1545 44.8658 68.8612 45.2925 68.6478 45.7992C68.4345 46.2925 68.3278 46.8592 68.3278 47.4992V53.8192C68.3278 54.4592 68.4345 55.0325 68.6478 55.5392C68.8612 56.0325 69.1545 56.4592 69.5278 56.8192C69.9012 57.1658 70.3345 57.4325 70.8278 57.6192C71.3345 57.8058 71.8678 57.8992 72.4278 57.8992C72.9878 57.8992 73.5145 57.8058 74.0078 57.6192C74.5145 57.4325 74.9545 57.1658 75.3278 56.8192C75.7012 56.4592 75.9945 56.0325 76.2078 55.5392C76.4345 55.0325 76.5478 54.4592 76.5478 53.8192ZM74.5078 53.7592C74.5078 54.4525 74.3212 55.0125 73.9478 55.4392C73.5878 55.8658 73.0812 56.0792 72.4278 56.0792C71.7745 56.0792 71.2678 55.8658 70.9078 55.4392C70.5478 55.0125 70.3678 54.4525 70.3678 53.7592V47.5592C70.3678 46.8658 70.5478 46.3058 70.9078 45.8792C71.2678 45.4525 71.7745 45.2392 72.4278 45.2392C73.0812 45.2392 73.5878 45.4525 73.9478 45.8792C74.3212 46.3058 74.5078 46.8658 74.5078 47.5592V53.7592ZM87.2119 53.8192V47.4992C87.2119 46.8592 87.0986 46.2925 86.8719 45.7992C86.6586 45.2925 86.3652 44.8658 85.9919 44.5192C85.6186 44.1592 85.1786 43.8858 84.6719 43.6992C84.1786 43.5125 83.6519 43.4192 83.0919 43.4192C82.5319 43.4192 81.9986 43.5125 81.4919 43.6992C80.9986 43.8858 80.5652 44.1592 80.1919 44.5192C79.8186 44.8658 79.5252 45.2925 79.3119 45.7992C79.0986 46.2925 78.9919 46.8592 78.9919 47.4992V53.8192C78.9919 54.4592 79.0986 55.0325 79.3119 55.5392C79.5252 56.0325 79.8186 56.4592 80.1919 56.8192C80.5652 57.1658 80.9986 57.4325 81.4919 57.6192C81.9986 57.8058 82.5319 57.8992 83.0919 57.8992C83.6519 57.8992 84.1786 57.8058 84.6719 57.6192C85.1786 57.4325 85.6186 57.1658 85.9919 56.8192C86.3652 56.4592 86.6586 56.0325 86.8719 55.5392C87.0986 55.0325 87.2119 54.4592 87.2119 53.8192ZM85.1719 53.7592C85.1719 54.4525 84.9852 55.0125 84.6119 55.4392C84.2519 55.8658 83.7452 56.0792 83.0919 56.0792C82.4386 56.0792 81.9319 55.8658 81.5719 55.4392C81.2119 55.0125 81.0319 54.4525 81.0319 53.7592V47.5592C81.0319 46.8658 81.2119 46.3058 81.5719 45.8792C81.9319 45.4525 82.4386 45.2392 83.0919 45.2392C83.7452 45.2392 84.2519 45.4525 84.6119 45.8792C84.9852 46.3058 85.1719 46.8658 85.1719 47.5592V53.7592Z" fill="#333333"/>
</svg>
